<mxfile host="app.diagrams.net" modified="2023-11-10T07:00:33.695Z" agent="Mozilla/5.0 (Windows NT 10.0; Win64; x64) AppleWebKit/537.36 (KHTML, like Gecko) Chrome/119.0.0.0 Safari/537.36 Edg/119.0.0.0" etag="q7IHfjhPwgjNxrE9wLIE" version="22.1.0" type="device">
  <diagram name="Page-1" id="EXideWdlfHeh1v_1BbbG">
    <mxGraphModel dx="1090" dy="-201" grid="1" gridSize="10" guides="1" tooltips="1" connect="1" arrows="1" fold="1" page="1" pageScale="1" pageWidth="1100" pageHeight="850" math="0" shadow="0">
      <root>
        <mxCell id="0" />
        <mxCell id="1" parent="0" />
        <mxCell id="5j-aSM9gxBSo-HwZJ35h-2" value="Person" style="rounded=0;whiteSpace=wrap;html=1;fontStyle=1" vertex="1" parent="1">
          <mxGeometry x="580" y="990" width="120" height="60" as="geometry" />
        </mxCell>
        <mxCell id="5j-aSM9gxBSo-HwZJ35h-4" value="Name" style="ellipse;whiteSpace=wrap;html=1;fontStyle=0" vertex="1" parent="1">
          <mxGeometry x="400" y="960" width="120" height="50" as="geometry" />
        </mxCell>
        <mxCell id="5j-aSM9gxBSo-HwZJ35h-6" value="Age" style="ellipse;whiteSpace=wrap;html=1;" vertex="1" parent="1">
          <mxGeometry x="510" y="910" width="120" height="50" as="geometry" />
        </mxCell>
        <mxCell id="5j-aSM9gxBSo-HwZJ35h-7" value="Gender" style="ellipse;whiteSpace=wrap;html=1;" vertex="1" parent="1">
          <mxGeometry x="650" y="910" width="120" height="50" as="geometry" />
        </mxCell>
        <mxCell id="5j-aSM9gxBSo-HwZJ35h-8" value="Birthdate" style="ellipse;whiteSpace=wrap;html=1;" vertex="1" parent="1">
          <mxGeometry x="750" y="970" width="120" height="50" as="geometry" />
        </mxCell>
        <mxCell id="5j-aSM9gxBSo-HwZJ35h-9" value="" style="endArrow=none;html=1;rounded=0;entryX=0.25;entryY=0;entryDx=0;entryDy=0;exitX=0.5;exitY=1;exitDx=0;exitDy=0;" edge="1" parent="1" source="5j-aSM9gxBSo-HwZJ35h-6" target="5j-aSM9gxBSo-HwZJ35h-2">
          <mxGeometry width="50" height="50" relative="1" as="geometry">
            <mxPoint x="530" y="990" as="sourcePoint" />
            <mxPoint x="580" y="940" as="targetPoint" />
          </mxGeometry>
        </mxCell>
        <mxCell id="5j-aSM9gxBSo-HwZJ35h-11" value="" style="endArrow=none;html=1;rounded=0;entryX=0;entryY=0.25;entryDx=0;entryDy=0;exitX=1;exitY=0.5;exitDx=0;exitDy=0;" edge="1" parent="1" source="5j-aSM9gxBSo-HwZJ35h-4" target="5j-aSM9gxBSo-HwZJ35h-2">
          <mxGeometry width="50" height="50" relative="1" as="geometry">
            <mxPoint x="530" y="990" as="sourcePoint" />
            <mxPoint x="580" y="940" as="targetPoint" />
          </mxGeometry>
        </mxCell>
        <mxCell id="5j-aSM9gxBSo-HwZJ35h-12" value="" style="endArrow=none;html=1;rounded=0;entryX=0.5;entryY=1;entryDx=0;entryDy=0;exitX=0.75;exitY=0;exitDx=0;exitDy=0;" edge="1" parent="1" source="5j-aSM9gxBSo-HwZJ35h-2" target="5j-aSM9gxBSo-HwZJ35h-7">
          <mxGeometry width="50" height="50" relative="1" as="geometry">
            <mxPoint x="530" y="990" as="sourcePoint" />
            <mxPoint x="580" y="940" as="targetPoint" />
          </mxGeometry>
        </mxCell>
        <mxCell id="5j-aSM9gxBSo-HwZJ35h-13" value="" style="endArrow=none;html=1;rounded=0;exitX=1;exitY=0.25;exitDx=0;exitDy=0;entryX=0;entryY=0.5;entryDx=0;entryDy=0;" edge="1" parent="1" source="5j-aSM9gxBSo-HwZJ35h-2" target="5j-aSM9gxBSo-HwZJ35h-8">
          <mxGeometry width="50" height="50" relative="1" as="geometry">
            <mxPoint x="530" y="990" as="sourcePoint" />
            <mxPoint x="580" y="940" as="targetPoint" />
          </mxGeometry>
        </mxCell>
        <mxCell id="5j-aSM9gxBSo-HwZJ35h-14" value="Alumnus" style="rounded=0;whiteSpace=wrap;html=1;fontStyle=1" vertex="1" parent="1">
          <mxGeometry x="580" y="1195" width="120" height="60" as="geometry" />
        </mxCell>
        <mxCell id="5j-aSM9gxBSo-HwZJ35h-15" value="Student" style="rounded=0;whiteSpace=wrap;html=1;fontStyle=1" vertex="1" parent="1">
          <mxGeometry x="780" y="1195" width="120" height="60" as="geometry" />
        </mxCell>
        <mxCell id="5j-aSM9gxBSo-HwZJ35h-16" value="Employee" style="rounded=0;whiteSpace=wrap;html=1;fontStyle=1" vertex="1" parent="1">
          <mxGeometry x="370" y="1195" width="120" height="60" as="geometry" />
        </mxCell>
        <mxCell id="5j-aSM9gxBSo-HwZJ35h-17" value="Utility Staff" style="rounded=0;whiteSpace=wrap;html=1;fontStyle=1" vertex="1" parent="1">
          <mxGeometry x="370" y="1375" width="120" height="60" as="geometry" />
        </mxCell>
        <mxCell id="5j-aSM9gxBSo-HwZJ35h-18" value="Faculty" style="rounded=0;whiteSpace=wrap;html=1;fontStyle=1" vertex="1" parent="1">
          <mxGeometry x="500" y="1375" width="120" height="60" as="geometry" />
        </mxCell>
        <mxCell id="5j-aSM9gxBSo-HwZJ35h-19" value="Student Assistant" style="rounded=0;whiteSpace=wrap;html=1;fontStyle=1" vertex="1" parent="1">
          <mxGeometry x="230" y="1375" width="120" height="60" as="geometry" />
        </mxCell>
        <mxCell id="5j-aSM9gxBSo-HwZJ35h-20" value="Specialization" style="ellipse;whiteSpace=wrap;html=1;" vertex="1" parent="1">
          <mxGeometry x="500" y="1495" width="120" height="50" as="geometry" />
        </mxCell>
        <mxCell id="5j-aSM9gxBSo-HwZJ35h-21" value="Position" style="ellipse;whiteSpace=wrap;html=1;" vertex="1" parent="1">
          <mxGeometry x="370" y="1495" width="120" height="50" as="geometry" />
        </mxCell>
        <mxCell id="5j-aSM9gxBSo-HwZJ35h-22" value="Major" style="ellipse;whiteSpace=wrap;html=1;" vertex="1" parent="1">
          <mxGeometry x="60" y="1415" width="120" height="50" as="geometry" />
        </mxCell>
        <mxCell id="5j-aSM9gxBSo-HwZJ35h-23" value="Shift Time" style="ellipse;whiteSpace=wrap;html=1;" vertex="1" parent="1">
          <mxGeometry x="60" y="1350" width="120" height="50" as="geometry" />
        </mxCell>
        <mxCell id="5j-aSM9gxBSo-HwZJ35h-25" value="Ungraduate" style="rounded=0;whiteSpace=wrap;html=1;fontStyle=1" vertex="1" parent="1">
          <mxGeometry x="780" y="1325" width="120" height="60" as="geometry" />
        </mxCell>
        <mxCell id="5j-aSM9gxBSo-HwZJ35h-26" value="Subject" style="ellipse;whiteSpace=wrap;html=1;" vertex="1" parent="1">
          <mxGeometry x="950" y="1330" width="120" height="50" as="geometry" />
        </mxCell>
        <mxCell id="5j-aSM9gxBSo-HwZJ35h-27" value="Student-id" style="ellipse;whiteSpace=wrap;html=1;" vertex="1" parent="1">
          <mxGeometry x="950" y="1155" width="120" height="50" as="geometry" />
        </mxCell>
        <mxCell id="5j-aSM9gxBSo-HwZJ35h-28" value="Major" style="ellipse;whiteSpace=wrap;html=1;" vertex="1" parent="1">
          <mxGeometry x="950" y="1245" width="120" height="50" as="geometry" />
        </mxCell>
        <mxCell id="5j-aSM9gxBSo-HwZJ35h-29" value="Employee-ID" style="ellipse;whiteSpace=wrap;html=1;" vertex="1" parent="1">
          <mxGeometry x="190" y="1155" width="120" height="50" as="geometry" />
        </mxCell>
        <mxCell id="5j-aSM9gxBSo-HwZJ35h-30" value="Salary" style="ellipse;whiteSpace=wrap;html=1;" vertex="1" parent="1">
          <mxGeometry x="190" y="1245" width="120" height="50" as="geometry" />
        </mxCell>
        <mxCell id="5j-aSM9gxBSo-HwZJ35h-31" value="Degree" style="ellipse;whiteSpace=wrap;html=1;" vertex="1" parent="1">
          <mxGeometry x="580" y="1295" width="120" height="50" as="geometry" />
        </mxCell>
        <mxCell id="5j-aSM9gxBSo-HwZJ35h-32" value="" style="endArrow=none;html=1;rounded=0;entryX=0.5;entryY=1;entryDx=0;entryDy=0;exitX=0.5;exitY=0;exitDx=0;exitDy=0;" edge="1" parent="1" source="5j-aSM9gxBSo-HwZJ35h-14" target="5j-aSM9gxBSo-HwZJ35h-35">
          <mxGeometry width="50" height="50" relative="1" as="geometry">
            <mxPoint x="530" y="1020" as="sourcePoint" />
            <mxPoint x="590" y="1040" as="targetPoint" />
          </mxGeometry>
        </mxCell>
        <mxCell id="5j-aSM9gxBSo-HwZJ35h-33" value="" style="endArrow=none;html=1;rounded=0;exitX=0.5;exitY=0;exitDx=0;exitDy=0;entryX=0;entryY=0.5;entryDx=0;entryDy=0;" edge="1" parent="1" source="5j-aSM9gxBSo-HwZJ35h-16" target="5j-aSM9gxBSo-HwZJ35h-35">
          <mxGeometry width="50" height="50" relative="1" as="geometry">
            <mxPoint x="570" y="1095" as="sourcePoint" />
            <mxPoint x="620" y="1045" as="targetPoint" />
          </mxGeometry>
        </mxCell>
        <mxCell id="5j-aSM9gxBSo-HwZJ35h-34" value="" style="endArrow=none;html=1;rounded=0;exitX=0.5;exitY=0;exitDx=0;exitDy=0;entryX=1;entryY=0.5;entryDx=0;entryDy=0;" edge="1" parent="1" source="5j-aSM9gxBSo-HwZJ35h-15" target="5j-aSM9gxBSo-HwZJ35h-35">
          <mxGeometry width="50" height="50" relative="1" as="geometry">
            <mxPoint x="440" y="1205" as="sourcePoint" />
            <mxPoint x="650" y="1085" as="targetPoint" />
          </mxGeometry>
        </mxCell>
        <mxCell id="5j-aSM9gxBSo-HwZJ35h-35" value="U" style="ellipse;whiteSpace=wrap;html=1;aspect=fixed;" vertex="1" parent="1">
          <mxGeometry x="620" y="1095" width="40" height="40" as="geometry" />
        </mxCell>
        <mxCell id="5j-aSM9gxBSo-HwZJ35h-36" value="" style="endArrow=none;html=1;rounded=0;exitX=0.5;exitY=0;exitDx=0;exitDy=0;entryX=0.5;entryY=1;entryDx=0;entryDy=0;" edge="1" parent="1" source="5j-aSM9gxBSo-HwZJ35h-35" target="5j-aSM9gxBSo-HwZJ35h-2">
          <mxGeometry width="50" height="50" relative="1" as="geometry">
            <mxPoint x="570" y="1095" as="sourcePoint" />
            <mxPoint x="620" y="1045" as="targetPoint" />
          </mxGeometry>
        </mxCell>
        <mxCell id="5j-aSM9gxBSo-HwZJ35h-37" value="" style="endArrow=none;html=1;rounded=0;entryX=0.5;entryY=1;entryDx=0;entryDy=0;exitX=0.5;exitY=0;exitDx=0;exitDy=0;" edge="1" parent="1" source="5j-aSM9gxBSo-HwZJ35h-31" target="5j-aSM9gxBSo-HwZJ35h-14">
          <mxGeometry width="50" height="50" relative="1" as="geometry">
            <mxPoint x="530" y="1285" as="sourcePoint" />
            <mxPoint x="580" y="1235" as="targetPoint" />
          </mxGeometry>
        </mxCell>
        <mxCell id="5j-aSM9gxBSo-HwZJ35h-38" value="" style="endArrow=none;html=1;rounded=0;exitX=1;exitY=0.5;exitDx=0;exitDy=0;entryX=0;entryY=0.25;entryDx=0;entryDy=0;" edge="1" parent="1" source="5j-aSM9gxBSo-HwZJ35h-29" target="5j-aSM9gxBSo-HwZJ35h-16">
          <mxGeometry width="50" height="50" relative="1" as="geometry">
            <mxPoint x="400" y="1285" as="sourcePoint" />
            <mxPoint x="450" y="1235" as="targetPoint" />
          </mxGeometry>
        </mxCell>
        <mxCell id="5j-aSM9gxBSo-HwZJ35h-39" value="" style="endArrow=none;html=1;rounded=0;exitX=1;exitY=0.5;exitDx=0;exitDy=0;entryX=0;entryY=0.75;entryDx=0;entryDy=0;" edge="1" parent="1" source="5j-aSM9gxBSo-HwZJ35h-30" target="5j-aSM9gxBSo-HwZJ35h-16">
          <mxGeometry width="50" height="50" relative="1" as="geometry">
            <mxPoint x="400" y="1285" as="sourcePoint" />
            <mxPoint x="450" y="1235" as="targetPoint" />
          </mxGeometry>
        </mxCell>
        <mxCell id="5j-aSM9gxBSo-HwZJ35h-41" value="d" style="ellipse;whiteSpace=wrap;html=1;aspect=fixed;" vertex="1" parent="1">
          <mxGeometry x="410" y="1285" width="40" height="40" as="geometry" />
        </mxCell>
        <mxCell id="5j-aSM9gxBSo-HwZJ35h-42" value="" style="endArrow=none;html=1;rounded=0;exitX=0.5;exitY=0;exitDx=0;exitDy=0;entryX=0.5;entryY=1;entryDx=0;entryDy=0;" edge="1" parent="1" source="5j-aSM9gxBSo-HwZJ35h-17" target="5j-aSM9gxBSo-HwZJ35h-41">
          <mxGeometry width="50" height="50" relative="1" as="geometry">
            <mxPoint x="490" y="1235" as="sourcePoint" />
            <mxPoint x="540" y="1185" as="targetPoint" />
          </mxGeometry>
        </mxCell>
        <mxCell id="5j-aSM9gxBSo-HwZJ35h-43" value="" style="endArrow=none;html=1;rounded=0;exitX=0.5;exitY=0;exitDx=0;exitDy=0;entryX=1;entryY=1;entryDx=0;entryDy=0;" edge="1" parent="1" source="5j-aSM9gxBSo-HwZJ35h-18" target="5j-aSM9gxBSo-HwZJ35h-41">
          <mxGeometry width="50" height="50" relative="1" as="geometry">
            <mxPoint x="370" y="1385" as="sourcePoint" />
            <mxPoint x="430" y="1335" as="targetPoint" />
          </mxGeometry>
        </mxCell>
        <mxCell id="5j-aSM9gxBSo-HwZJ35h-44" value="" style="endArrow=none;html=1;rounded=0;exitX=0.5;exitY=0;exitDx=0;exitDy=0;entryX=0.5;entryY=1;entryDx=0;entryDy=0;shape=link;" edge="1" parent="1" source="5j-aSM9gxBSo-HwZJ35h-41" target="5j-aSM9gxBSo-HwZJ35h-16">
          <mxGeometry width="50" height="50" relative="1" as="geometry">
            <mxPoint x="490" y="1235" as="sourcePoint" />
            <mxPoint x="540" y="1185" as="targetPoint" />
          </mxGeometry>
        </mxCell>
        <mxCell id="5j-aSM9gxBSo-HwZJ35h-45" value="" style="endArrow=none;html=1;rounded=0;exitX=1;exitY=0.5;exitDx=0;exitDy=0;entryX=0;entryY=0.25;entryDx=0;entryDy=0;" edge="1" parent="1" source="5j-aSM9gxBSo-HwZJ35h-23" target="5j-aSM9gxBSo-HwZJ35h-19">
          <mxGeometry width="50" height="50" relative="1" as="geometry">
            <mxPoint x="40" y="1605" as="sourcePoint" />
            <mxPoint x="90" y="1555" as="targetPoint" />
          </mxGeometry>
        </mxCell>
        <mxCell id="5j-aSM9gxBSo-HwZJ35h-47" value="" style="endArrow=none;html=1;rounded=0;exitX=1;exitY=0.5;exitDx=0;exitDy=0;entryX=0;entryY=0.75;entryDx=0;entryDy=0;" edge="1" parent="1" source="5j-aSM9gxBSo-HwZJ35h-22" target="5j-aSM9gxBSo-HwZJ35h-19">
          <mxGeometry width="50" height="50" relative="1" as="geometry">
            <mxPoint x="40" y="1605" as="sourcePoint" />
            <mxPoint x="90" y="1555" as="targetPoint" />
          </mxGeometry>
        </mxCell>
        <mxCell id="5j-aSM9gxBSo-HwZJ35h-48" value="" style="endArrow=none;html=1;rounded=0;exitX=0.5;exitY=1;exitDx=0;exitDy=0;" edge="1" parent="1" source="5j-aSM9gxBSo-HwZJ35h-17" target="5j-aSM9gxBSo-HwZJ35h-21">
          <mxGeometry width="50" height="50" relative="1" as="geometry">
            <mxPoint x="420" y="1475" as="sourcePoint" />
            <mxPoint x="470" y="1425" as="targetPoint" />
          </mxGeometry>
        </mxCell>
        <mxCell id="5j-aSM9gxBSo-HwZJ35h-49" value="" style="endArrow=none;html=1;rounded=0;entryX=0.5;entryY=1;entryDx=0;entryDy=0;exitX=0.5;exitY=0;exitDx=0;exitDy=0;" edge="1" parent="1" source="5j-aSM9gxBSo-HwZJ35h-20" target="5j-aSM9gxBSo-HwZJ35h-18">
          <mxGeometry width="50" height="50" relative="1" as="geometry">
            <mxPoint x="420" y="1525" as="sourcePoint" />
            <mxPoint x="470" y="1475" as="targetPoint" />
          </mxGeometry>
        </mxCell>
        <mxCell id="5j-aSM9gxBSo-HwZJ35h-50" value="" style="endArrow=none;html=1;rounded=0;" edge="1" parent="1" source="5j-aSM9gxBSo-HwZJ35h-27" target="5j-aSM9gxBSo-HwZJ35h-15">
          <mxGeometry width="50" height="50" relative="1" as="geometry">
            <mxPoint x="800" y="1275" as="sourcePoint" />
            <mxPoint x="850" y="1225" as="targetPoint" />
          </mxGeometry>
        </mxCell>
        <mxCell id="5j-aSM9gxBSo-HwZJ35h-51" value="" style="endArrow=none;html=1;rounded=0;" edge="1" parent="1" source="5j-aSM9gxBSo-HwZJ35h-28" target="5j-aSM9gxBSo-HwZJ35h-15">
          <mxGeometry width="50" height="50" relative="1" as="geometry">
            <mxPoint x="800" y="1275" as="sourcePoint" />
            <mxPoint x="850" y="1225" as="targetPoint" />
          </mxGeometry>
        </mxCell>
        <mxCell id="5j-aSM9gxBSo-HwZJ35h-52" value="" style="endArrow=none;html=1;rounded=0;entryX=0.5;entryY=1;entryDx=0;entryDy=0;exitX=0.5;exitY=0;exitDx=0;exitDy=0;" edge="1" parent="1" source="5j-aSM9gxBSo-HwZJ35h-25" target="5j-aSM9gxBSo-HwZJ35h-15">
          <mxGeometry width="50" height="50" relative="1" as="geometry">
            <mxPoint x="800" y="1325" as="sourcePoint" />
            <mxPoint x="850" y="1275" as="targetPoint" />
          </mxGeometry>
        </mxCell>
        <mxCell id="5j-aSM9gxBSo-HwZJ35h-53" value="" style="endArrow=none;html=1;rounded=0;" edge="1" parent="1" source="5j-aSM9gxBSo-HwZJ35h-26" target="5j-aSM9gxBSo-HwZJ35h-25">
          <mxGeometry width="50" height="50" relative="1" as="geometry">
            <mxPoint x="800" y="1475" as="sourcePoint" />
            <mxPoint x="850" y="1425" as="targetPoint" />
          </mxGeometry>
        </mxCell>
        <mxCell id="5j-aSM9gxBSo-HwZJ35h-55" value="" style="shape=requiredInterface;html=1;verticalLabelPosition=bottom;sketch=0;rotation=-90;" vertex="1" parent="1">
          <mxGeometry x="635" y="1065" width="10" height="20" as="geometry" />
        </mxCell>
        <mxCell id="5j-aSM9gxBSo-HwZJ35h-60" value="" style="endArrow=none;html=1;rounded=0;entryX=0;entryY=1;entryDx=0;entryDy=0;exitX=0.5;exitY=0;exitDx=0;exitDy=0;" edge="1" parent="1" source="5j-aSM9gxBSo-HwZJ35h-19" target="5j-aSM9gxBSo-HwZJ35h-41">
          <mxGeometry width="50" height="50" relative="1" as="geometry">
            <mxPoint x="380" y="1485" as="sourcePoint" />
            <mxPoint x="430" y="1435" as="targetPoint" />
          </mxGeometry>
        </mxCell>
        <mxCell id="5j-aSM9gxBSo-HwZJ35h-61" value="Technical Assistant" style="rounded=0;whiteSpace=wrap;html=1;fontStyle=1" vertex="1" parent="1">
          <mxGeometry x="170" y="1555" width="120" height="60" as="geometry" />
        </mxCell>
        <mxCell id="5j-aSM9gxBSo-HwZJ35h-62" value="Library assistant" style="rounded=0;whiteSpace=wrap;html=1;fontStyle=1" vertex="1" parent="1">
          <mxGeometry x="305" y="1555" width="120" height="60" as="geometry" />
        </mxCell>
        <mxCell id="5j-aSM9gxBSo-HwZJ35h-63" value="" style="endArrow=none;html=1;rounded=0;entryX=0.5;entryY=1;entryDx=0;entryDy=0;exitX=0.5;exitY=0;exitDx=0;exitDy=0;" edge="1" parent="1" source="5j-aSM9gxBSo-HwZJ35h-61" target="5j-aSM9gxBSo-HwZJ35h-19">
          <mxGeometry width="50" height="50" relative="1" as="geometry">
            <mxPoint x="270" y="1545" as="sourcePoint" />
            <mxPoint x="320" y="1495" as="targetPoint" />
          </mxGeometry>
        </mxCell>
        <mxCell id="5j-aSM9gxBSo-HwZJ35h-64" value="" style="endArrow=none;html=1;rounded=0;entryX=0.5;entryY=1;entryDx=0;entryDy=0;exitX=0.5;exitY=0;exitDx=0;exitDy=0;" edge="1" parent="1" source="5j-aSM9gxBSo-HwZJ35h-62" target="5j-aSM9gxBSo-HwZJ35h-19">
          <mxGeometry width="50" height="50" relative="1" as="geometry">
            <mxPoint x="200" y="1585" as="sourcePoint" />
            <mxPoint x="300" y="1445" as="targetPoint" />
          </mxGeometry>
        </mxCell>
        <mxCell id="5j-aSM9gxBSo-HwZJ35h-65" value="Laboratory-Handle" style="ellipse;whiteSpace=wrap;html=1;" vertex="1" parent="1">
          <mxGeometry x="162.5" y="1655" width="135" height="35" as="geometry" />
        </mxCell>
        <mxCell id="5j-aSM9gxBSo-HwZJ35h-66" value="" style="endArrow=none;html=1;rounded=0;exitX=0.5;exitY=0;exitDx=0;exitDy=0;entryX=0.5;entryY=1;entryDx=0;entryDy=0;" edge="1" parent="1" source="5j-aSM9gxBSo-HwZJ35h-65" target="5j-aSM9gxBSo-HwZJ35h-61">
          <mxGeometry width="50" height="50" relative="1" as="geometry">
            <mxPoint x="90" y="1605" as="sourcePoint" />
            <mxPoint x="140" y="1555" as="targetPoint" />
          </mxGeometry>
        </mxCell>
        <mxCell id="5j-aSM9gxBSo-HwZJ35h-67" value="Book Responsibilities" style="ellipse;whiteSpace=wrap;html=1;" vertex="1" parent="1">
          <mxGeometry x="305" y="1655" width="120" height="35" as="geometry" />
        </mxCell>
        <mxCell id="5j-aSM9gxBSo-HwZJ35h-68" value="" style="endArrow=none;html=1;rounded=0;exitX=0.5;exitY=0;exitDx=0;exitDy=0;" edge="1" parent="1" source="5j-aSM9gxBSo-HwZJ35h-67" target="5j-aSM9gxBSo-HwZJ35h-62">
          <mxGeometry width="50" height="50" relative="1" as="geometry">
            <mxPoint x="230" y="1605" as="sourcePoint" />
            <mxPoint x="330" y="1635" as="targetPoint" />
          </mxGeometry>
        </mxCell>
        <mxCell id="5j-aSM9gxBSo-HwZJ35h-69" value="" style="shape=requiredInterface;html=1;verticalLabelPosition=bottom;sketch=0;rotation=-45;flipH=1;flipV=1;" vertex="1" parent="1">
          <mxGeometry x="360" y="1330" width="10" height="20" as="geometry" />
        </mxCell>
        <mxCell id="5j-aSM9gxBSo-HwZJ35h-70" value="" style="shape=requiredInterface;html=1;verticalLabelPosition=bottom;sketch=0;rotation=-90;flipH=1;" vertex="1" parent="1">
          <mxGeometry x="425" y="1345" width="10" height="20" as="geometry" />
        </mxCell>
        <mxCell id="5j-aSM9gxBSo-HwZJ35h-72" value="" style="shape=requiredInterface;html=1;verticalLabelPosition=bottom;sketch=0;rotation=-135;flipH=1;" vertex="1" parent="1">
          <mxGeometry x="490" y="1330" width="10" height="20" as="geometry" />
        </mxCell>
      </root>
    </mxGraphModel>
  </diagram>
</mxfile>
